%TF.GenerationSoftware,KiCad,Pcbnew,(5.1.6)-1*%
%TF.CreationDate,2020-11-22T11:15:34-08:00*%
%TF.ProjectId,tenkey_plusplus,74656e6b-6579-45f7-906c-7573706c7573,1*%
%TF.SameCoordinates,Original*%
%TF.FileFunction,Legend,Bot*%
%TF.FilePolarity,Positive*%
%FSLAX46Y46*%
G04 Gerber Fmt 4.6, Leading zero omitted, Abs format (unit mm)*
G04 Created by KiCad (PCBNEW (5.1.6)-1) date 2020-11-22 11:15:34*
%MOMM*%
%LPD*%
G01*
G04 APERTURE LIST*
%ADD10C,0.150000*%
%ADD11C,0.120000*%
G04 APERTURE END LIST*
D10*
X130532392Y-70158398D02*
X130865726Y-69682208D01*
X131103821Y-70158398D02*
X131103821Y-69158398D01*
X130722869Y-69158398D01*
X130627631Y-69206018D01*
X130580012Y-69253637D01*
X130532392Y-69348875D01*
X130532392Y-69491732D01*
X130580012Y-69586970D01*
X130627631Y-69634589D01*
X130722869Y-69682208D01*
X131103821Y-69682208D01*
X130103821Y-69634589D02*
X129770488Y-69634589D01*
X129627631Y-70158398D02*
X130103821Y-70158398D01*
X130103821Y-69158398D01*
X129627631Y-69158398D01*
X129246678Y-70110779D02*
X129103821Y-70158398D01*
X128865726Y-70158398D01*
X128770488Y-70110779D01*
X128722869Y-70063160D01*
X128675250Y-69967922D01*
X128675250Y-69872684D01*
X128722869Y-69777446D01*
X128770488Y-69729827D01*
X128865726Y-69682208D01*
X129056202Y-69634589D01*
X129151440Y-69586970D01*
X129199059Y-69539351D01*
X129246678Y-69444113D01*
X129246678Y-69348875D01*
X129199059Y-69253637D01*
X129151440Y-69206018D01*
X129056202Y-69158398D01*
X128818107Y-69158398D01*
X128675250Y-69206018D01*
X128246678Y-69634589D02*
X127913345Y-69634589D01*
X127770488Y-70158398D02*
X128246678Y-70158398D01*
X128246678Y-69158398D01*
X127770488Y-69158398D01*
X127484773Y-69158398D02*
X126913345Y-69158398D01*
X127199059Y-70158398D02*
X127199059Y-69158398D01*
D11*
X101824618Y-50539688D02*
G75*
G03*
X101824618Y-50539688I-254000J0D01*
G01*
%TO.C,Y1*%
X93956000Y-69398976D02*
X93956000Y-66098976D01*
X93956000Y-66098976D02*
X97956000Y-66098976D01*
%TO.C,RV2*%
X128289018Y-56055566D02*
X128289018Y-55538410D01*
X126869018Y-56055566D02*
X126869018Y-55538410D01*
%TO.C,RV1*%
X122510518Y-56055566D02*
X122510518Y-55538410D01*
X121090518Y-56055566D02*
X121090518Y-55538410D01*
%TO.C,R11*%
X126384018Y-56055566D02*
X126384018Y-55538410D01*
X124964018Y-56055566D02*
X124964018Y-55538410D01*
%TO.C,R10*%
X124415518Y-56055566D02*
X124415518Y-55538410D01*
X122995518Y-56055566D02*
X122995518Y-55538410D01*
%TO.C,R6*%
X102716012Y-48873440D02*
X102716012Y-49390596D01*
X104136012Y-48873440D02*
X104136012Y-49390596D01*
%TO.C,R5*%
X116888018Y-54649910D02*
X116888018Y-55167066D01*
X118308018Y-54649910D02*
X118308018Y-55167066D01*
%TO.C,R4*%
X86492440Y-49077988D02*
X87009596Y-49077988D01*
X86492440Y-47657988D02*
X87009596Y-47657988D01*
%TO.C,R3*%
X124714596Y-48292988D02*
X124197440Y-48292988D01*
X124714596Y-49712988D02*
X124197440Y-49712988D01*
%TO.C,R2*%
X129715018Y-51919410D02*
X129715018Y-52436566D01*
X131135018Y-51919410D02*
X131135018Y-52436566D01*
%TO.C,R1*%
X124451596Y-60357988D02*
X123934440Y-60357988D01*
X124451596Y-61777988D02*
X123934440Y-61777988D01*
%TO.C,F1*%
X117041582Y-47534988D02*
X115837454Y-47534988D01*
X117041582Y-49354988D02*
X115837454Y-49354988D01*
%TO.C,D19*%
X106368012Y-48132018D02*
X106368012Y-51017018D01*
X106368012Y-51017018D02*
X104548012Y-51017018D01*
X104548012Y-51017018D02*
X104548012Y-48132018D01*
%TO.C,C14*%
X118793018Y-54649910D02*
X118793018Y-55167066D01*
X120213018Y-54649910D02*
X120213018Y-55167066D01*
%TO.C,C13*%
X115895018Y-55167066D02*
X115895018Y-54649910D01*
X114475018Y-55167066D02*
X114475018Y-54649910D01*
%TO.C,C6*%
X92735578Y-47735000D02*
X92218422Y-47735000D01*
X92735578Y-49155000D02*
X92218422Y-49155000D01*
%TO.C,C5*%
X103022578Y-63610000D02*
X102505422Y-63610000D01*
X103022578Y-65030000D02*
X102505422Y-65030000D01*
%TO.C,C4*%
X97409596Y-47657988D02*
X96892440Y-47657988D01*
X97409596Y-49077988D02*
X96892440Y-49077988D01*
%TO.C,C3*%
X106653012Y-58423840D02*
X106653012Y-58940996D01*
X108073012Y-58423840D02*
X108073012Y-58940996D01*
%TO.C,C2*%
X92527018Y-68148554D02*
X92527018Y-67631398D01*
X91107018Y-68148554D02*
X91107018Y-67631398D01*
%TO.C,C1*%
X99362018Y-67631398D02*
X99362018Y-68148554D01*
X100782018Y-67631398D02*
X100782018Y-68148554D01*
%TO.C,D18*%
X130717976Y-58289988D02*
X126817976Y-58289988D01*
X130717976Y-60289988D02*
X126817976Y-60289988D01*
X130717976Y-58289988D02*
X130717976Y-60289988D01*
D10*
%TO.C,U1*%
X101131000Y-51591976D02*
X102406000Y-51591976D01*
X90781000Y-51016976D02*
X91456000Y-51016976D01*
X90781000Y-61366976D02*
X91456000Y-61366976D01*
X101131000Y-61366976D02*
X100456000Y-61366976D01*
X101131000Y-51016976D02*
X100456000Y-51016976D01*
X101131000Y-61366976D02*
X101131000Y-60691976D01*
X90781000Y-61366976D02*
X90781000Y-60691976D01*
X90781000Y-51016976D02*
X90781000Y-51691976D01*
X101131000Y-51016976D02*
X101131000Y-51591976D01*
D11*
%TO.C,D23*%
X117510018Y-68145988D02*
X113610018Y-68145988D01*
X117510018Y-70145988D02*
X113610018Y-70145988D01*
X117510018Y-68145988D02*
X117510018Y-70145988D01*
%TO.C,D22*%
X145958018Y-68145988D02*
X142058018Y-68145988D01*
X145958018Y-70145988D02*
X142058018Y-70145988D01*
X145958018Y-68145988D02*
X145958018Y-70145988D01*
%TO.C,D21*%
X89062018Y-68145988D02*
X85162018Y-68145988D01*
X89062018Y-70145988D02*
X85162018Y-70145988D01*
X89062018Y-68145988D02*
X89062018Y-70145988D01*
%TO.C,D17*%
X112576976Y-158495036D02*
X112576976Y-154595036D01*
X110576976Y-158495036D02*
X110576976Y-154595036D01*
X112576976Y-158495036D02*
X110576976Y-158495036D01*
%TO.C,D16*%
X84016018Y-158425988D02*
X84016018Y-154525988D01*
X82016018Y-158425988D02*
X82016018Y-154525988D01*
X84016018Y-158425988D02*
X82016018Y-158425988D01*
%TO.C,D15*%
X131516018Y-148925988D02*
X131516018Y-145025988D01*
X129516018Y-148925988D02*
X129516018Y-145025988D01*
X131516018Y-148925988D02*
X129516018Y-148925988D01*
%TO.C,D14*%
X112576976Y-139445036D02*
X112576976Y-135545036D01*
X110576976Y-139445036D02*
X110576976Y-135545036D01*
X112576976Y-139445036D02*
X110576976Y-139445036D01*
%TO.C,D13*%
X93526976Y-139445036D02*
X93526976Y-135545036D01*
X91526976Y-139445036D02*
X91526976Y-135545036D01*
X93526976Y-139445036D02*
X91526976Y-139445036D01*
%TO.C,D12*%
X74476976Y-139445036D02*
X74476976Y-135545036D01*
X72476976Y-139445036D02*
X72476976Y-135545036D01*
X74476976Y-139445036D02*
X72476976Y-139445036D01*
%TO.C,D11*%
X112576976Y-120395036D02*
X112576976Y-116495036D01*
X110576976Y-120395036D02*
X110576976Y-116495036D01*
X112576976Y-120395036D02*
X110576976Y-120395036D01*
%TO.C,D10*%
X93526976Y-120395036D02*
X93526976Y-116495036D01*
X91526976Y-120395036D02*
X91526976Y-116495036D01*
X93526976Y-120395036D02*
X91526976Y-120395036D01*
%TO.C,D9*%
X74476976Y-120395036D02*
X74476976Y-116495036D01*
X72476976Y-120395036D02*
X72476976Y-116495036D01*
X74476976Y-120395036D02*
X72476976Y-120395036D01*
%TO.C,D8*%
X131516018Y-110925988D02*
X131516018Y-107025988D01*
X129516018Y-110925988D02*
X129516018Y-107025988D01*
X131516018Y-110925988D02*
X129516018Y-110925988D01*
%TO.C,D7*%
X112576976Y-101345036D02*
X112576976Y-97445036D01*
X110576976Y-101345036D02*
X110576976Y-97445036D01*
X112576976Y-101345036D02*
X110576976Y-101345036D01*
%TO.C,D6*%
X93526976Y-101345036D02*
X93526976Y-97445036D01*
X91526976Y-101345036D02*
X91526976Y-97445036D01*
X93526976Y-101345036D02*
X91526976Y-101345036D01*
%TO.C,D5*%
X74476976Y-101345036D02*
X74476976Y-97445036D01*
X72476976Y-101345036D02*
X72476976Y-97445036D01*
X74476976Y-101345036D02*
X72476976Y-101345036D01*
%TO.C,D4*%
X131626976Y-82295036D02*
X131626976Y-78395036D01*
X129626976Y-82295036D02*
X129626976Y-78395036D01*
X131626976Y-82295036D02*
X129626976Y-82295036D01*
%TO.C,D3*%
X112576976Y-82295036D02*
X112576976Y-78395036D01*
X110576976Y-82295036D02*
X110576976Y-78395036D01*
X112576976Y-82295036D02*
X110576976Y-82295036D01*
%TO.C,D2*%
X93526976Y-82295036D02*
X93526976Y-78395036D01*
X91526976Y-82295036D02*
X91526976Y-78395036D01*
X93526976Y-82295036D02*
X91526976Y-82295036D01*
%TO.C,D1*%
X74476976Y-82295036D02*
X74476976Y-78395036D01*
X72476976Y-82295036D02*
X72476976Y-78395036D01*
X74476976Y-82295036D02*
X72476976Y-82295036D01*
%TO.C,Y1*%
D10*
X96432190Y-70175166D02*
X96432190Y-70651356D01*
X96765523Y-69651356D02*
X96432190Y-70175166D01*
X96098857Y-69651356D01*
X95241714Y-70651356D02*
X95813142Y-70651356D01*
X95527428Y-70651356D02*
X95527428Y-69651356D01*
X95622666Y-69794214D01*
X95717904Y-69889452D01*
X95813142Y-69937071D01*
%TO.C,RV2*%
X129786392Y-54886779D02*
X129310202Y-54553446D01*
X129786392Y-54315351D02*
X128786392Y-54315351D01*
X128786392Y-54696303D01*
X128834012Y-54791541D01*
X128881631Y-54839160D01*
X128976869Y-54886779D01*
X129119726Y-54886779D01*
X129214964Y-54839160D01*
X129262583Y-54791541D01*
X129310202Y-54696303D01*
X129310202Y-54315351D01*
X128786392Y-55172494D02*
X129786392Y-55505827D01*
X128786392Y-55839160D01*
X128881631Y-56124875D02*
X128834012Y-56172494D01*
X128786392Y-56267732D01*
X128786392Y-56505827D01*
X128834012Y-56601065D01*
X128881631Y-56648684D01*
X128976869Y-56696303D01*
X129072107Y-56696303D01*
X129214964Y-56648684D01*
X129786392Y-56077256D01*
X129786392Y-56696303D01*
%TO.C,RV1*%
X122166392Y-58188779D02*
X121690202Y-57855446D01*
X122166392Y-57617351D02*
X121166392Y-57617351D01*
X121166392Y-57998303D01*
X121214012Y-58093541D01*
X121261631Y-58141160D01*
X121356869Y-58188779D01*
X121499726Y-58188779D01*
X121594964Y-58141160D01*
X121642583Y-58093541D01*
X121690202Y-57998303D01*
X121690202Y-57617351D01*
X121166392Y-58474494D02*
X122166392Y-58807827D01*
X121166392Y-59141160D01*
X122166392Y-59998303D02*
X122166392Y-59426875D01*
X122166392Y-59712589D02*
X121166392Y-59712589D01*
X121309250Y-59617351D01*
X121404488Y-59522113D01*
X121452107Y-59426875D01*
%TO.C,R11*%
X125976392Y-58141160D02*
X125500202Y-57807827D01*
X125976392Y-57569732D02*
X124976392Y-57569732D01*
X124976392Y-57950684D01*
X125024012Y-58045922D01*
X125071631Y-58093541D01*
X125166869Y-58141160D01*
X125309726Y-58141160D01*
X125404964Y-58093541D01*
X125452583Y-58045922D01*
X125500202Y-57950684D01*
X125500202Y-57569732D01*
X125976392Y-59093541D02*
X125976392Y-58522113D01*
X125976392Y-58807827D02*
X124976392Y-58807827D01*
X125119250Y-58712589D01*
X125214488Y-58617351D01*
X125262107Y-58522113D01*
X125976392Y-60045922D02*
X125976392Y-59474494D01*
X125976392Y-59760208D02*
X124976392Y-59760208D01*
X125119250Y-59664970D01*
X125214488Y-59569732D01*
X125262107Y-59474494D01*
%TO.C,R10*%
X123944392Y-58141160D02*
X123468202Y-57807827D01*
X123944392Y-57569732D02*
X122944392Y-57569732D01*
X122944392Y-57950684D01*
X122992012Y-58045922D01*
X123039631Y-58093541D01*
X123134869Y-58141160D01*
X123277726Y-58141160D01*
X123372964Y-58093541D01*
X123420583Y-58045922D01*
X123468202Y-57950684D01*
X123468202Y-57569732D01*
X123944392Y-59093541D02*
X123944392Y-58522113D01*
X123944392Y-58807827D02*
X122944392Y-58807827D01*
X123087250Y-58712589D01*
X123182488Y-58617351D01*
X123230107Y-58522113D01*
X122944392Y-59712589D02*
X122944392Y-59807827D01*
X122992012Y-59903065D01*
X123039631Y-59950684D01*
X123134869Y-59998303D01*
X123325345Y-60045922D01*
X123563440Y-60045922D01*
X123753916Y-59998303D01*
X123849154Y-59950684D01*
X123896773Y-59903065D01*
X123944392Y-59807827D01*
X123944392Y-59712589D01*
X123896773Y-59617351D01*
X123849154Y-59569732D01*
X123753916Y-59522113D01*
X123563440Y-59474494D01*
X123325345Y-59474494D01*
X123134869Y-59522113D01*
X123039631Y-59569732D01*
X122992012Y-59617351D01*
X122944392Y-59712589D01*
%TO.C,R6*%
X104132392Y-51505351D02*
X103656202Y-51172018D01*
X104132392Y-50933922D02*
X103132392Y-50933922D01*
X103132392Y-51314875D01*
X103180012Y-51410113D01*
X103227631Y-51457732D01*
X103322869Y-51505351D01*
X103465726Y-51505351D01*
X103560964Y-51457732D01*
X103608583Y-51410113D01*
X103656202Y-51314875D01*
X103656202Y-50933922D01*
X103132392Y-52362494D02*
X103132392Y-52172018D01*
X103180012Y-52076779D01*
X103227631Y-52029160D01*
X103370488Y-51933922D01*
X103560964Y-51886303D01*
X103941916Y-51886303D01*
X104037154Y-51933922D01*
X104084773Y-51981541D01*
X104132392Y-52076779D01*
X104132392Y-52267256D01*
X104084773Y-52362494D01*
X104037154Y-52410113D01*
X103941916Y-52457732D01*
X103703821Y-52457732D01*
X103608583Y-52410113D01*
X103560964Y-52362494D01*
X103513345Y-52267256D01*
X103513345Y-52076779D01*
X103560964Y-51981541D01*
X103608583Y-51933922D01*
X103703821Y-51886303D01*
%TO.C,R5*%
X118610392Y-57347351D02*
X118134202Y-57014018D01*
X118610392Y-56775922D02*
X117610392Y-56775922D01*
X117610392Y-57156875D01*
X117658012Y-57252113D01*
X117705631Y-57299732D01*
X117800869Y-57347351D01*
X117943726Y-57347351D01*
X118038964Y-57299732D01*
X118086583Y-57252113D01*
X118134202Y-57156875D01*
X118134202Y-56775922D01*
X117610392Y-58252113D02*
X117610392Y-57775922D01*
X118086583Y-57728303D01*
X118038964Y-57775922D01*
X117991345Y-57871160D01*
X117991345Y-58109256D01*
X118038964Y-58204494D01*
X118086583Y-58252113D01*
X118181821Y-58299732D01*
X118419916Y-58299732D01*
X118515154Y-58252113D01*
X118562773Y-58204494D01*
X118610392Y-58109256D01*
X118610392Y-57871160D01*
X118562773Y-57775922D01*
X118515154Y-57728303D01*
%TO.C,R4*%
X86917684Y-50470368D02*
X87251018Y-49994178D01*
X87489113Y-50470368D02*
X87489113Y-49470368D01*
X87108160Y-49470368D01*
X87012922Y-49517988D01*
X86965303Y-49565607D01*
X86917684Y-49660845D01*
X86917684Y-49803702D01*
X86965303Y-49898940D01*
X87012922Y-49946559D01*
X87108160Y-49994178D01*
X87489113Y-49994178D01*
X86060541Y-49803702D02*
X86060541Y-50470368D01*
X86298637Y-49422749D02*
X86536732Y-50137035D01*
X85917684Y-50137035D01*
%TO.C,R3*%
X127214678Y-49584398D02*
X127548012Y-49108208D01*
X127786107Y-49584398D02*
X127786107Y-48584398D01*
X127405154Y-48584398D01*
X127309916Y-48632018D01*
X127262297Y-48679637D01*
X127214678Y-48774875D01*
X127214678Y-48917732D01*
X127262297Y-49012970D01*
X127309916Y-49060589D01*
X127405154Y-49108208D01*
X127786107Y-49108208D01*
X126881345Y-48584398D02*
X126262297Y-48584398D01*
X126595631Y-48965351D01*
X126452773Y-48965351D01*
X126357535Y-49012970D01*
X126309916Y-49060589D01*
X126262297Y-49155827D01*
X126262297Y-49393922D01*
X126309916Y-49489160D01*
X126357535Y-49536779D01*
X126452773Y-49584398D01*
X126738488Y-49584398D01*
X126833726Y-49536779D01*
X126881345Y-49489160D01*
%TO.C,R2*%
X132580392Y-52013351D02*
X132104202Y-51680018D01*
X132580392Y-51441922D02*
X131580392Y-51441922D01*
X131580392Y-51822875D01*
X131628012Y-51918113D01*
X131675631Y-51965732D01*
X131770869Y-52013351D01*
X131913726Y-52013351D01*
X132008964Y-51965732D01*
X132056583Y-51918113D01*
X132104202Y-51822875D01*
X132104202Y-51441922D01*
X131675631Y-52394303D02*
X131628012Y-52441922D01*
X131580392Y-52537160D01*
X131580392Y-52775256D01*
X131628012Y-52870494D01*
X131675631Y-52918113D01*
X131770869Y-52965732D01*
X131866107Y-52965732D01*
X132008964Y-52918113D01*
X132580392Y-52346684D01*
X132580392Y-52965732D01*
%TO.C,R1*%
X124166678Y-63300398D02*
X124500012Y-62824208D01*
X124738107Y-63300398D02*
X124738107Y-62300398D01*
X124357154Y-62300398D01*
X124261916Y-62348018D01*
X124214297Y-62395637D01*
X124166678Y-62490875D01*
X124166678Y-62633732D01*
X124214297Y-62728970D01*
X124261916Y-62776589D01*
X124357154Y-62824208D01*
X124738107Y-62824208D01*
X123214297Y-63300398D02*
X123785726Y-63300398D01*
X123500012Y-63300398D02*
X123500012Y-62300398D01*
X123595250Y-62443256D01*
X123690488Y-62538494D01*
X123785726Y-62586113D01*
%TO.C,F1*%
X116713345Y-50076589D02*
X117046678Y-50076589D01*
X117046678Y-50600398D02*
X117046678Y-49600398D01*
X116570488Y-49600398D01*
X115665726Y-50600398D02*
X116237154Y-50600398D01*
X115951440Y-50600398D02*
X115951440Y-49600398D01*
X116046678Y-49743256D01*
X116141916Y-49838494D01*
X116237154Y-49886113D01*
%TO.C,D19*%
X107510392Y-47917732D02*
X106510392Y-47917732D01*
X106510392Y-48155827D01*
X106558012Y-48298684D01*
X106653250Y-48393922D01*
X106748488Y-48441541D01*
X106938964Y-48489160D01*
X107081821Y-48489160D01*
X107272297Y-48441541D01*
X107367535Y-48393922D01*
X107462773Y-48298684D01*
X107510392Y-48155827D01*
X107510392Y-47917732D01*
X107510392Y-49441541D02*
X107510392Y-48870113D01*
X107510392Y-49155827D02*
X106510392Y-49155827D01*
X106653250Y-49060589D01*
X106748488Y-48965351D01*
X106796107Y-48870113D01*
X107510392Y-49917732D02*
X107510392Y-50108208D01*
X107462773Y-50203446D01*
X107415154Y-50251065D01*
X107272297Y-50346303D01*
X107081821Y-50393922D01*
X106700869Y-50393922D01*
X106605631Y-50346303D01*
X106558012Y-50298684D01*
X106510392Y-50203446D01*
X106510392Y-50012970D01*
X106558012Y-49917732D01*
X106605631Y-49870113D01*
X106700869Y-49822494D01*
X106938964Y-49822494D01*
X107034202Y-49870113D01*
X107081821Y-49917732D01*
X107129440Y-50012970D01*
X107129440Y-50203446D01*
X107081821Y-50298684D01*
X107034202Y-50346303D01*
X106938964Y-50393922D01*
%TO.C,C14*%
X120039154Y-57379160D02*
X120086773Y-57331541D01*
X120134392Y-57188684D01*
X120134392Y-57093446D01*
X120086773Y-56950589D01*
X119991535Y-56855351D01*
X119896297Y-56807732D01*
X119705821Y-56760113D01*
X119562964Y-56760113D01*
X119372488Y-56807732D01*
X119277250Y-56855351D01*
X119182012Y-56950589D01*
X119134392Y-57093446D01*
X119134392Y-57188684D01*
X119182012Y-57331541D01*
X119229631Y-57379160D01*
X120134392Y-58331541D02*
X120134392Y-57760113D01*
X120134392Y-58045827D02*
X119134392Y-58045827D01*
X119277250Y-57950589D01*
X119372488Y-57855351D01*
X119420107Y-57760113D01*
X119467726Y-59188684D02*
X120134392Y-59188684D01*
X119086773Y-58950589D02*
X119801059Y-58712494D01*
X119801059Y-59331541D01*
%TO.C,C13*%
X113943154Y-54331160D02*
X113990773Y-54283541D01*
X114038392Y-54140684D01*
X114038392Y-54045446D01*
X113990773Y-53902589D01*
X113895535Y-53807351D01*
X113800297Y-53759732D01*
X113609821Y-53712113D01*
X113466964Y-53712113D01*
X113276488Y-53759732D01*
X113181250Y-53807351D01*
X113086012Y-53902589D01*
X113038392Y-54045446D01*
X113038392Y-54140684D01*
X113086012Y-54283541D01*
X113133631Y-54331160D01*
X114038392Y-55283541D02*
X114038392Y-54712113D01*
X114038392Y-54997827D02*
X113038392Y-54997827D01*
X113181250Y-54902589D01*
X113276488Y-54807351D01*
X113324107Y-54712113D01*
X113038392Y-55616875D02*
X113038392Y-56235922D01*
X113419345Y-55902589D01*
X113419345Y-56045446D01*
X113466964Y-56140684D01*
X113514583Y-56188303D01*
X113609821Y-56235922D01*
X113847916Y-56235922D01*
X113943154Y-56188303D01*
X113990773Y-56140684D01*
X114038392Y-56045446D01*
X114038392Y-55759732D01*
X113990773Y-55664494D01*
X113943154Y-55616875D01*
%TO.C,C6*%
X89876678Y-48981160D02*
X89924297Y-49028779D01*
X90067154Y-49076398D01*
X90162392Y-49076398D01*
X90305250Y-49028779D01*
X90400488Y-48933541D01*
X90448107Y-48838303D01*
X90495726Y-48647827D01*
X90495726Y-48504970D01*
X90448107Y-48314494D01*
X90400488Y-48219256D01*
X90305250Y-48124018D01*
X90162392Y-48076398D01*
X90067154Y-48076398D01*
X89924297Y-48124018D01*
X89876678Y-48171637D01*
X89019535Y-48076398D02*
X89210012Y-48076398D01*
X89305250Y-48124018D01*
X89352869Y-48171637D01*
X89448107Y-48314494D01*
X89495726Y-48504970D01*
X89495726Y-48885922D01*
X89448107Y-48981160D01*
X89400488Y-49028779D01*
X89305250Y-49076398D01*
X89114773Y-49076398D01*
X89019535Y-49028779D01*
X88971916Y-48981160D01*
X88924297Y-48885922D01*
X88924297Y-48647827D01*
X88971916Y-48552589D01*
X89019535Y-48504970D01*
X89114773Y-48457351D01*
X89305250Y-48457351D01*
X89400488Y-48504970D01*
X89448107Y-48552589D01*
X89495726Y-48647827D01*
%TO.C,C5*%
X102930666Y-63027142D02*
X102978285Y-63074761D01*
X103121142Y-63122380D01*
X103216380Y-63122380D01*
X103359238Y-63074761D01*
X103454476Y-62979523D01*
X103502095Y-62884285D01*
X103549714Y-62693809D01*
X103549714Y-62550952D01*
X103502095Y-62360476D01*
X103454476Y-62265238D01*
X103359238Y-62170000D01*
X103216380Y-62122380D01*
X103121142Y-62122380D01*
X102978285Y-62170000D01*
X102930666Y-62217619D01*
X102025904Y-62122380D02*
X102502095Y-62122380D01*
X102549714Y-62598571D01*
X102502095Y-62550952D01*
X102406857Y-62503333D01*
X102168761Y-62503333D01*
X102073523Y-62550952D01*
X102025904Y-62598571D01*
X101978285Y-62693809D01*
X101978285Y-62931904D01*
X102025904Y-63027142D01*
X102073523Y-63074761D01*
X102168761Y-63122380D01*
X102406857Y-63122380D01*
X102502095Y-63074761D01*
X102549714Y-63027142D01*
%TO.C,C4*%
X100036678Y-47965160D02*
X100084297Y-48012779D01*
X100227154Y-48060398D01*
X100322392Y-48060398D01*
X100465250Y-48012779D01*
X100560488Y-47917541D01*
X100608107Y-47822303D01*
X100655726Y-47631827D01*
X100655726Y-47488970D01*
X100608107Y-47298494D01*
X100560488Y-47203256D01*
X100465250Y-47108018D01*
X100322392Y-47060398D01*
X100227154Y-47060398D01*
X100084297Y-47108018D01*
X100036678Y-47155637D01*
X99179535Y-47393732D02*
X99179535Y-48060398D01*
X99417631Y-47012779D02*
X99655726Y-47727065D01*
X99036678Y-47727065D01*
%TO.C,C3*%
X106070154Y-58515751D02*
X106117773Y-58468132D01*
X106165392Y-58325275D01*
X106165392Y-58230037D01*
X106117773Y-58087179D01*
X106022535Y-57991941D01*
X105927297Y-57944322D01*
X105736821Y-57896703D01*
X105593964Y-57896703D01*
X105403488Y-57944322D01*
X105308250Y-57991941D01*
X105213012Y-58087179D01*
X105165392Y-58230037D01*
X105165392Y-58325275D01*
X105213012Y-58468132D01*
X105260631Y-58515751D01*
X105165392Y-58849084D02*
X105165392Y-59468132D01*
X105546345Y-59134798D01*
X105546345Y-59277656D01*
X105593964Y-59372894D01*
X105641583Y-59420513D01*
X105736821Y-59468132D01*
X105974916Y-59468132D01*
X106070154Y-59420513D01*
X106117773Y-59372894D01*
X106165392Y-59277656D01*
X106165392Y-58991941D01*
X106117773Y-58896703D01*
X106070154Y-58849084D01*
%TO.C,C2*%
X92099154Y-64967351D02*
X92146773Y-64919732D01*
X92194392Y-64776875D01*
X92194392Y-64681637D01*
X92146773Y-64538779D01*
X92051535Y-64443541D01*
X91956297Y-64395922D01*
X91765821Y-64348303D01*
X91622964Y-64348303D01*
X91432488Y-64395922D01*
X91337250Y-64443541D01*
X91242012Y-64538779D01*
X91194392Y-64681637D01*
X91194392Y-64776875D01*
X91242012Y-64919732D01*
X91289631Y-64967351D01*
X91289631Y-65348303D02*
X91242012Y-65395922D01*
X91194392Y-65491160D01*
X91194392Y-65729256D01*
X91242012Y-65824494D01*
X91289631Y-65872113D01*
X91384869Y-65919732D01*
X91480107Y-65919732D01*
X91622964Y-65872113D01*
X92194392Y-65300684D01*
X92194392Y-65919732D01*
%TO.C,C1*%
X100227154Y-64967351D02*
X100274773Y-64919732D01*
X100322392Y-64776875D01*
X100322392Y-64681637D01*
X100274773Y-64538779D01*
X100179535Y-64443541D01*
X100084297Y-64395922D01*
X99893821Y-64348303D01*
X99750964Y-64348303D01*
X99560488Y-64395922D01*
X99465250Y-64443541D01*
X99370012Y-64538779D01*
X99322392Y-64681637D01*
X99322392Y-64776875D01*
X99370012Y-64919732D01*
X99417631Y-64967351D01*
X100322392Y-65919732D02*
X100322392Y-65348303D01*
X100322392Y-65634018D02*
X99322392Y-65634018D01*
X99465250Y-65538779D01*
X99560488Y-65443541D01*
X99608107Y-65348303D01*
%TO.C,D18*%
X129682261Y-61520368D02*
X129682261Y-60520368D01*
X129444166Y-60520368D01*
X129301309Y-60567988D01*
X129206071Y-60663226D01*
X129158452Y-60758464D01*
X129110833Y-60948940D01*
X129110833Y-61091797D01*
X129158452Y-61282273D01*
X129206071Y-61377511D01*
X129301309Y-61472749D01*
X129444166Y-61520368D01*
X129682261Y-61520368D01*
X128158452Y-61520368D02*
X128729880Y-61520368D01*
X128444166Y-61520368D02*
X128444166Y-60520368D01*
X128539404Y-60663226D01*
X128634642Y-60758464D01*
X128729880Y-60806083D01*
X127587023Y-60948940D02*
X127682261Y-60901321D01*
X127729880Y-60853702D01*
X127777499Y-60758464D01*
X127777499Y-60710845D01*
X127729880Y-60615607D01*
X127682261Y-60567988D01*
X127587023Y-60520368D01*
X127396547Y-60520368D01*
X127301309Y-60567988D01*
X127253690Y-60615607D01*
X127206071Y-60710845D01*
X127206071Y-60758464D01*
X127253690Y-60853702D01*
X127301309Y-60901321D01*
X127396547Y-60948940D01*
X127587023Y-60948940D01*
X127682261Y-60996559D01*
X127729880Y-61044178D01*
X127777499Y-61139416D01*
X127777499Y-61329892D01*
X127729880Y-61425130D01*
X127682261Y-61472749D01*
X127587023Y-61520368D01*
X127396547Y-61520368D01*
X127301309Y-61472749D01*
X127253690Y-61425130D01*
X127206071Y-61329892D01*
X127206071Y-61139416D01*
X127253690Y-61044178D01*
X127301309Y-60996559D01*
X127396547Y-60948940D01*
%TO.C,U1*%
X102155916Y-48330398D02*
X102155916Y-49139922D01*
X102108297Y-49235160D01*
X102060678Y-49282779D01*
X101965440Y-49330398D01*
X101774964Y-49330398D01*
X101679726Y-49282779D01*
X101632107Y-49235160D01*
X101584488Y-49139922D01*
X101584488Y-48330398D01*
X100584488Y-49330398D02*
X101155916Y-49330398D01*
X100870202Y-49330398D02*
X100870202Y-48330398D01*
X100965440Y-48473256D01*
X101060678Y-48568494D01*
X101155916Y-48616113D01*
%TO.C,D23*%
X116530285Y-71572380D02*
X116530285Y-70572380D01*
X116292190Y-70572380D01*
X116149333Y-70620000D01*
X116054095Y-70715238D01*
X116006476Y-70810476D01*
X115958857Y-71000952D01*
X115958857Y-71143809D01*
X116006476Y-71334285D01*
X116054095Y-71429523D01*
X116149333Y-71524761D01*
X116292190Y-71572380D01*
X116530285Y-71572380D01*
X115577904Y-70667619D02*
X115530285Y-70620000D01*
X115435047Y-70572380D01*
X115196952Y-70572380D01*
X115101714Y-70620000D01*
X115054095Y-70667619D01*
X115006476Y-70762857D01*
X115006476Y-70858095D01*
X115054095Y-71000952D01*
X115625523Y-71572380D01*
X115006476Y-71572380D01*
X114673142Y-70572380D02*
X114054095Y-70572380D01*
X114387428Y-70953333D01*
X114244571Y-70953333D01*
X114149333Y-71000952D01*
X114101714Y-71048571D01*
X114054095Y-71143809D01*
X114054095Y-71381904D01*
X114101714Y-71477142D01*
X114149333Y-71524761D01*
X114244571Y-71572380D01*
X114530285Y-71572380D01*
X114625523Y-71524761D01*
X114673142Y-71477142D01*
%TO.C,D22*%
X144922303Y-67598368D02*
X144922303Y-66598368D01*
X144684208Y-66598368D01*
X144541351Y-66645988D01*
X144446113Y-66741226D01*
X144398494Y-66836464D01*
X144350875Y-67026940D01*
X144350875Y-67169797D01*
X144398494Y-67360273D01*
X144446113Y-67455511D01*
X144541351Y-67550749D01*
X144684208Y-67598368D01*
X144922303Y-67598368D01*
X143969922Y-66693607D02*
X143922303Y-66645988D01*
X143827065Y-66598368D01*
X143588970Y-66598368D01*
X143493732Y-66645988D01*
X143446113Y-66693607D01*
X143398494Y-66788845D01*
X143398494Y-66884083D01*
X143446113Y-67026940D01*
X144017541Y-67598368D01*
X143398494Y-67598368D01*
X143017541Y-66693607D02*
X142969922Y-66645988D01*
X142874684Y-66598368D01*
X142636589Y-66598368D01*
X142541351Y-66645988D01*
X142493732Y-66693607D01*
X142446113Y-66788845D01*
X142446113Y-66884083D01*
X142493732Y-67026940D01*
X143065160Y-67598368D01*
X142446113Y-67598368D01*
%TO.C,D21*%
X88026303Y-67598368D02*
X88026303Y-66598368D01*
X87788208Y-66598368D01*
X87645351Y-66645988D01*
X87550113Y-66741226D01*
X87502494Y-66836464D01*
X87454875Y-67026940D01*
X87454875Y-67169797D01*
X87502494Y-67360273D01*
X87550113Y-67455511D01*
X87645351Y-67550749D01*
X87788208Y-67598368D01*
X88026303Y-67598368D01*
X87073922Y-66693607D02*
X87026303Y-66645988D01*
X86931065Y-66598368D01*
X86692970Y-66598368D01*
X86597732Y-66645988D01*
X86550113Y-66693607D01*
X86502494Y-66788845D01*
X86502494Y-66884083D01*
X86550113Y-67026940D01*
X87121541Y-67598368D01*
X86502494Y-67598368D01*
X85550113Y-67598368D02*
X86121541Y-67598368D01*
X85835827Y-67598368D02*
X85835827Y-66598368D01*
X85931065Y-66741226D01*
X86026303Y-66836464D01*
X86121541Y-66884083D01*
%TO.C,D17*%
X114029356Y-155030750D02*
X113029356Y-155030750D01*
X113029356Y-155268845D01*
X113076976Y-155411702D01*
X113172214Y-155506940D01*
X113267452Y-155554559D01*
X113457928Y-155602178D01*
X113600785Y-155602178D01*
X113791261Y-155554559D01*
X113886499Y-155506940D01*
X113981737Y-155411702D01*
X114029356Y-155268845D01*
X114029356Y-155030750D01*
X114029356Y-156554559D02*
X114029356Y-155983131D01*
X114029356Y-156268845D02*
X113029356Y-156268845D01*
X113172214Y-156173607D01*
X113267452Y-156078369D01*
X113315071Y-155983131D01*
X113029356Y-156887893D02*
X113029356Y-157554559D01*
X114029356Y-157125988D01*
%TO.C,D16*%
X85468398Y-154961702D02*
X84468398Y-154961702D01*
X84468398Y-155199797D01*
X84516018Y-155342654D01*
X84611256Y-155437892D01*
X84706494Y-155485511D01*
X84896970Y-155533130D01*
X85039827Y-155533130D01*
X85230303Y-155485511D01*
X85325541Y-155437892D01*
X85420779Y-155342654D01*
X85468398Y-155199797D01*
X85468398Y-154961702D01*
X85468398Y-156485511D02*
X85468398Y-155914083D01*
X85468398Y-156199797D02*
X84468398Y-156199797D01*
X84611256Y-156104559D01*
X84706494Y-156009321D01*
X84754113Y-155914083D01*
X84468398Y-157342654D02*
X84468398Y-157152178D01*
X84516018Y-157056940D01*
X84563637Y-157009321D01*
X84706494Y-156914083D01*
X84896970Y-156866464D01*
X85277922Y-156866464D01*
X85373160Y-156914083D01*
X85420779Y-156961702D01*
X85468398Y-157056940D01*
X85468398Y-157247416D01*
X85420779Y-157342654D01*
X85373160Y-157390273D01*
X85277922Y-157437892D01*
X85039827Y-157437892D01*
X84944589Y-157390273D01*
X84896970Y-157342654D01*
X84849351Y-157247416D01*
X84849351Y-157056940D01*
X84896970Y-156961702D01*
X84944589Y-156914083D01*
X85039827Y-156866464D01*
%TO.C,D15*%
X132968398Y-145461702D02*
X131968398Y-145461702D01*
X131968398Y-145699797D01*
X132016018Y-145842654D01*
X132111256Y-145937892D01*
X132206494Y-145985511D01*
X132396970Y-146033130D01*
X132539827Y-146033130D01*
X132730303Y-145985511D01*
X132825541Y-145937892D01*
X132920779Y-145842654D01*
X132968398Y-145699797D01*
X132968398Y-145461702D01*
X132968398Y-146985511D02*
X132968398Y-146414083D01*
X132968398Y-146699797D02*
X131968398Y-146699797D01*
X132111256Y-146604559D01*
X132206494Y-146509321D01*
X132254113Y-146414083D01*
X131968398Y-147890273D02*
X131968398Y-147414083D01*
X132444589Y-147366464D01*
X132396970Y-147414083D01*
X132349351Y-147509321D01*
X132349351Y-147747416D01*
X132396970Y-147842654D01*
X132444589Y-147890273D01*
X132539827Y-147937892D01*
X132777922Y-147937892D01*
X132873160Y-147890273D01*
X132920779Y-147842654D01*
X132968398Y-147747416D01*
X132968398Y-147509321D01*
X132920779Y-147414083D01*
X132873160Y-147366464D01*
%TO.C,D14*%
X114029356Y-135980750D02*
X113029356Y-135980750D01*
X113029356Y-136218845D01*
X113076976Y-136361702D01*
X113172214Y-136456940D01*
X113267452Y-136504559D01*
X113457928Y-136552178D01*
X113600785Y-136552178D01*
X113791261Y-136504559D01*
X113886499Y-136456940D01*
X113981737Y-136361702D01*
X114029356Y-136218845D01*
X114029356Y-135980750D01*
X114029356Y-137504559D02*
X114029356Y-136933131D01*
X114029356Y-137218845D02*
X113029356Y-137218845D01*
X113172214Y-137123607D01*
X113267452Y-137028369D01*
X113315071Y-136933131D01*
X113362690Y-138361702D02*
X114029356Y-138361702D01*
X112981737Y-138123607D02*
X113696023Y-137885512D01*
X113696023Y-138504559D01*
%TO.C,D13*%
X94979356Y-135980750D02*
X93979356Y-135980750D01*
X93979356Y-136218845D01*
X94026976Y-136361702D01*
X94122214Y-136456940D01*
X94217452Y-136504559D01*
X94407928Y-136552178D01*
X94550785Y-136552178D01*
X94741261Y-136504559D01*
X94836499Y-136456940D01*
X94931737Y-136361702D01*
X94979356Y-136218845D01*
X94979356Y-135980750D01*
X94979356Y-137504559D02*
X94979356Y-136933131D01*
X94979356Y-137218845D02*
X93979356Y-137218845D01*
X94122214Y-137123607D01*
X94217452Y-137028369D01*
X94265071Y-136933131D01*
X93979356Y-137837893D02*
X93979356Y-138456940D01*
X94360309Y-138123607D01*
X94360309Y-138266464D01*
X94407928Y-138361702D01*
X94455547Y-138409321D01*
X94550785Y-138456940D01*
X94788880Y-138456940D01*
X94884118Y-138409321D01*
X94931737Y-138361702D01*
X94979356Y-138266464D01*
X94979356Y-137980750D01*
X94931737Y-137885512D01*
X94884118Y-137837893D01*
%TO.C,D12*%
X75929356Y-135980750D02*
X74929356Y-135980750D01*
X74929356Y-136218845D01*
X74976976Y-136361702D01*
X75072214Y-136456940D01*
X75167452Y-136504559D01*
X75357928Y-136552178D01*
X75500785Y-136552178D01*
X75691261Y-136504559D01*
X75786499Y-136456940D01*
X75881737Y-136361702D01*
X75929356Y-136218845D01*
X75929356Y-135980750D01*
X75929356Y-137504559D02*
X75929356Y-136933131D01*
X75929356Y-137218845D02*
X74929356Y-137218845D01*
X75072214Y-137123607D01*
X75167452Y-137028369D01*
X75215071Y-136933131D01*
X75024595Y-137885512D02*
X74976976Y-137933131D01*
X74929356Y-138028369D01*
X74929356Y-138266464D01*
X74976976Y-138361702D01*
X75024595Y-138409321D01*
X75119833Y-138456940D01*
X75215071Y-138456940D01*
X75357928Y-138409321D01*
X75929356Y-137837893D01*
X75929356Y-138456940D01*
%TO.C,D11*%
X114029356Y-116930750D02*
X113029356Y-116930750D01*
X113029356Y-117168845D01*
X113076976Y-117311702D01*
X113172214Y-117406940D01*
X113267452Y-117454559D01*
X113457928Y-117502178D01*
X113600785Y-117502178D01*
X113791261Y-117454559D01*
X113886499Y-117406940D01*
X113981737Y-117311702D01*
X114029356Y-117168845D01*
X114029356Y-116930750D01*
X114029356Y-118454559D02*
X114029356Y-117883131D01*
X114029356Y-118168845D02*
X113029356Y-118168845D01*
X113172214Y-118073607D01*
X113267452Y-117978369D01*
X113315071Y-117883131D01*
X114029356Y-119406940D02*
X114029356Y-118835512D01*
X114029356Y-119121226D02*
X113029356Y-119121226D01*
X113172214Y-119025988D01*
X113267452Y-118930750D01*
X113315071Y-118835512D01*
%TO.C,D10*%
X94979356Y-116930750D02*
X93979356Y-116930750D01*
X93979356Y-117168845D01*
X94026976Y-117311702D01*
X94122214Y-117406940D01*
X94217452Y-117454559D01*
X94407928Y-117502178D01*
X94550785Y-117502178D01*
X94741261Y-117454559D01*
X94836499Y-117406940D01*
X94931737Y-117311702D01*
X94979356Y-117168845D01*
X94979356Y-116930750D01*
X94979356Y-118454559D02*
X94979356Y-117883131D01*
X94979356Y-118168845D02*
X93979356Y-118168845D01*
X94122214Y-118073607D01*
X94217452Y-117978369D01*
X94265071Y-117883131D01*
X93979356Y-119073607D02*
X93979356Y-119168845D01*
X94026976Y-119264083D01*
X94074595Y-119311702D01*
X94169833Y-119359321D01*
X94360309Y-119406940D01*
X94598404Y-119406940D01*
X94788880Y-119359321D01*
X94884118Y-119311702D01*
X94931737Y-119264083D01*
X94979356Y-119168845D01*
X94979356Y-119073607D01*
X94931737Y-118978369D01*
X94884118Y-118930750D01*
X94788880Y-118883131D01*
X94598404Y-118835512D01*
X94360309Y-118835512D01*
X94169833Y-118883131D01*
X94074595Y-118930750D01*
X94026976Y-118978369D01*
X93979356Y-119073607D01*
%TO.C,D9*%
X75929356Y-117406940D02*
X74929356Y-117406940D01*
X74929356Y-117645036D01*
X74976976Y-117787893D01*
X75072214Y-117883131D01*
X75167452Y-117930750D01*
X75357928Y-117978369D01*
X75500785Y-117978369D01*
X75691261Y-117930750D01*
X75786499Y-117883131D01*
X75881737Y-117787893D01*
X75929356Y-117645036D01*
X75929356Y-117406940D01*
X75929356Y-118454559D02*
X75929356Y-118645036D01*
X75881737Y-118740274D01*
X75834118Y-118787893D01*
X75691261Y-118883131D01*
X75500785Y-118930750D01*
X75119833Y-118930750D01*
X75024595Y-118883131D01*
X74976976Y-118835512D01*
X74929356Y-118740274D01*
X74929356Y-118549797D01*
X74976976Y-118454559D01*
X75024595Y-118406940D01*
X75119833Y-118359321D01*
X75357928Y-118359321D01*
X75453166Y-118406940D01*
X75500785Y-118454559D01*
X75548404Y-118549797D01*
X75548404Y-118740274D01*
X75500785Y-118835512D01*
X75453166Y-118883131D01*
X75357928Y-118930750D01*
%TO.C,D8*%
X132968398Y-107937892D02*
X131968398Y-107937892D01*
X131968398Y-108175988D01*
X132016018Y-108318845D01*
X132111256Y-108414083D01*
X132206494Y-108461702D01*
X132396970Y-108509321D01*
X132539827Y-108509321D01*
X132730303Y-108461702D01*
X132825541Y-108414083D01*
X132920779Y-108318845D01*
X132968398Y-108175988D01*
X132968398Y-107937892D01*
X132396970Y-109080749D02*
X132349351Y-108985511D01*
X132301732Y-108937892D01*
X132206494Y-108890273D01*
X132158875Y-108890273D01*
X132063637Y-108937892D01*
X132016018Y-108985511D01*
X131968398Y-109080749D01*
X131968398Y-109271226D01*
X132016018Y-109366464D01*
X132063637Y-109414083D01*
X132158875Y-109461702D01*
X132206494Y-109461702D01*
X132301732Y-109414083D01*
X132349351Y-109366464D01*
X132396970Y-109271226D01*
X132396970Y-109080749D01*
X132444589Y-108985511D01*
X132492208Y-108937892D01*
X132587446Y-108890273D01*
X132777922Y-108890273D01*
X132873160Y-108937892D01*
X132920779Y-108985511D01*
X132968398Y-109080749D01*
X132968398Y-109271226D01*
X132920779Y-109366464D01*
X132873160Y-109414083D01*
X132777922Y-109461702D01*
X132587446Y-109461702D01*
X132492208Y-109414083D01*
X132444589Y-109366464D01*
X132396970Y-109271226D01*
%TO.C,D7*%
X114029356Y-98356940D02*
X113029356Y-98356940D01*
X113029356Y-98595036D01*
X113076976Y-98737893D01*
X113172214Y-98833131D01*
X113267452Y-98880750D01*
X113457928Y-98928369D01*
X113600785Y-98928369D01*
X113791261Y-98880750D01*
X113886499Y-98833131D01*
X113981737Y-98737893D01*
X114029356Y-98595036D01*
X114029356Y-98356940D01*
X113029356Y-99261702D02*
X113029356Y-99928369D01*
X114029356Y-99499797D01*
%TO.C,D6*%
X95011356Y-98356940D02*
X94011356Y-98356940D01*
X94011356Y-98595036D01*
X94058976Y-98737893D01*
X94154214Y-98833131D01*
X94249452Y-98880750D01*
X94439928Y-98928369D01*
X94582785Y-98928369D01*
X94773261Y-98880750D01*
X94868499Y-98833131D01*
X94963737Y-98737893D01*
X95011356Y-98595036D01*
X95011356Y-98356940D01*
X94011356Y-99785512D02*
X94011356Y-99595036D01*
X94058976Y-99499797D01*
X94106595Y-99452178D01*
X94249452Y-99356940D01*
X94439928Y-99309321D01*
X94820880Y-99309321D01*
X94916118Y-99356940D01*
X94963737Y-99404559D01*
X95011356Y-99499797D01*
X95011356Y-99690274D01*
X94963737Y-99785512D01*
X94916118Y-99833131D01*
X94820880Y-99880750D01*
X94582785Y-99880750D01*
X94487547Y-99833131D01*
X94439928Y-99785512D01*
X94392309Y-99690274D01*
X94392309Y-99499797D01*
X94439928Y-99404559D01*
X94487547Y-99356940D01*
X94582785Y-99309321D01*
%TO.C,D5*%
X75961374Y-98610940D02*
X74961374Y-98610940D01*
X74961374Y-98849036D01*
X75008994Y-98991893D01*
X75104232Y-99087131D01*
X75199470Y-99134750D01*
X75389946Y-99182369D01*
X75532803Y-99182369D01*
X75723279Y-99134750D01*
X75818517Y-99087131D01*
X75913755Y-98991893D01*
X75961374Y-98849036D01*
X75961374Y-98610940D01*
X74961374Y-100087131D02*
X74961374Y-99610940D01*
X75437565Y-99563321D01*
X75389946Y-99610940D01*
X75342327Y-99706178D01*
X75342327Y-99944274D01*
X75389946Y-100039512D01*
X75437565Y-100087131D01*
X75532803Y-100134750D01*
X75770898Y-100134750D01*
X75866136Y-100087131D01*
X75913755Y-100039512D01*
X75961374Y-99944274D01*
X75961374Y-99706178D01*
X75913755Y-99610940D01*
X75866136Y-99563321D01*
%TO.C,D4*%
X133111374Y-79052928D02*
X132111374Y-79052928D01*
X132111374Y-79291024D01*
X132158994Y-79433881D01*
X132254232Y-79529119D01*
X132349470Y-79576738D01*
X132539946Y-79624357D01*
X132682803Y-79624357D01*
X132873279Y-79576738D01*
X132968517Y-79529119D01*
X133063755Y-79433881D01*
X133111374Y-79291024D01*
X133111374Y-79052928D01*
X132444708Y-80481500D02*
X133111374Y-80481500D01*
X132063755Y-80243404D02*
X132778041Y-80005309D01*
X132778041Y-80624357D01*
%TO.C,D3*%
X114061374Y-79052928D02*
X113061374Y-79052928D01*
X113061374Y-79291024D01*
X113108994Y-79433881D01*
X113204232Y-79529119D01*
X113299470Y-79576738D01*
X113489946Y-79624357D01*
X113632803Y-79624357D01*
X113823279Y-79576738D01*
X113918517Y-79529119D01*
X114013755Y-79433881D01*
X114061374Y-79291024D01*
X114061374Y-79052928D01*
X113061374Y-79957690D02*
X113061374Y-80576738D01*
X113442327Y-80243404D01*
X113442327Y-80386262D01*
X113489946Y-80481500D01*
X113537565Y-80529119D01*
X113632803Y-80576738D01*
X113870898Y-80576738D01*
X113966136Y-80529119D01*
X114013755Y-80481500D01*
X114061374Y-80386262D01*
X114061374Y-80100547D01*
X114013755Y-80005309D01*
X113966136Y-79957690D01*
%TO.C,D2*%
X95011374Y-79052928D02*
X94011374Y-79052928D01*
X94011374Y-79291024D01*
X94058994Y-79433881D01*
X94154232Y-79529119D01*
X94249470Y-79576738D01*
X94439946Y-79624357D01*
X94582803Y-79624357D01*
X94773279Y-79576738D01*
X94868517Y-79529119D01*
X94963755Y-79433881D01*
X95011374Y-79291024D01*
X95011374Y-79052928D01*
X94106613Y-80005309D02*
X94058994Y-80052928D01*
X94011374Y-80148166D01*
X94011374Y-80386262D01*
X94058994Y-80481500D01*
X94106613Y-80529119D01*
X94201851Y-80576738D01*
X94297089Y-80576738D01*
X94439946Y-80529119D01*
X95011374Y-79957690D01*
X95011374Y-80576738D01*
%TO.C,D1*%
X75961374Y-79052928D02*
X74961374Y-79052928D01*
X74961374Y-79291024D01*
X75008994Y-79433881D01*
X75104232Y-79529119D01*
X75199470Y-79576738D01*
X75389946Y-79624357D01*
X75532803Y-79624357D01*
X75723279Y-79576738D01*
X75818517Y-79529119D01*
X75913755Y-79433881D01*
X75961374Y-79291024D01*
X75961374Y-79052928D01*
X75961374Y-80576738D02*
X75961374Y-80005309D01*
X75961374Y-80291024D02*
X74961374Y-80291024D01*
X75104232Y-80195785D01*
X75199470Y-80100547D01*
X75247089Y-80005309D01*
%TD*%
M02*
