%TF.GenerationSoftware,KiCad,Pcbnew,(5.1.6)-1*%
%TF.CreationDate,2020-11-22T11:15:34-08:00*%
%TF.ProjectId,tenkey_plusplus,74656e6b-6579-45f7-906c-7573706c7573,1*%
%TF.SameCoordinates,Original*%
%TF.FileFunction,Legend,Top*%
%TF.FilePolarity,Positive*%
%FSLAX46Y46*%
G04 Gerber Fmt 4.6, Leading zero omitted, Abs format (unit mm)*
G04 Created by KiCad (PCBNEW (5.1.6)-1) date 2020-11-22 11:15:34*
%MOMM*%
%LPD*%
G01*
G04 APERTURE LIST*
%ADD10C,0.120000*%
%ADD11C,0.150000*%
G04 APERTURE END LIST*
D10*
%TO.C,S16*%
X92501982Y-159370048D02*
X89961982Y-159370048D01*
X84731982Y-147540048D02*
X97731982Y-147540048D01*
X84731982Y-161040048D02*
X97731982Y-161040048D01*
X84731982Y-147540048D02*
X84731982Y-161040048D01*
X97731982Y-161040048D02*
X97731982Y-147540048D01*
%TO.C,S15*%
X143812012Y-143520042D02*
X143812012Y-146060042D01*
X131982012Y-151290042D02*
X131982012Y-138290042D01*
X145482012Y-151290042D02*
X145482012Y-138290042D01*
X131982012Y-151290042D02*
X145482012Y-151290042D01*
X145482012Y-138290042D02*
X131982012Y-138290042D01*
%TO.C,S8*%
X143812012Y-105520018D02*
X143812012Y-108060018D01*
X131982012Y-113290018D02*
X131982012Y-100290018D01*
X145482012Y-113290018D02*
X145482012Y-100290018D01*
X131982012Y-113290018D02*
X145482012Y-113290018D01*
X145482012Y-100290018D02*
X131982012Y-100290018D01*
%TO.C,SW3*%
X110232018Y-58789988D02*
X110232018Y-59789988D01*
X110732018Y-59289988D02*
X109732018Y-59289988D01*
X106532018Y-65989988D02*
X103932018Y-65989988D01*
X111532018Y-65989988D02*
X108932018Y-65989988D01*
X116532018Y-65989988D02*
X113932018Y-65989988D01*
X114332018Y-52089988D02*
X114032018Y-51789988D01*
X114332018Y-51489988D02*
X114332018Y-52089988D01*
X114032018Y-51789988D02*
X114332018Y-51489988D01*
X116532018Y-52589988D02*
X114032018Y-52589988D01*
X116532018Y-57389988D02*
X116532018Y-52589988D01*
X103932018Y-52589988D02*
X106732018Y-52589988D01*
X103932018Y-57489988D02*
X103932018Y-52589988D01*
X103932018Y-65989988D02*
X103932018Y-61089988D01*
X116532018Y-61089988D02*
X116532018Y-65989988D01*
X113232018Y-59289988D02*
G75*
G03*
X113232018Y-59289988I-3000000J0D01*
G01*
%TO.C,S17*%
X126232000Y-161040048D02*
X126232000Y-147540048D01*
X113232000Y-147540048D02*
X113232000Y-161040048D01*
X113232000Y-161040048D02*
X126232000Y-161040048D01*
X113232000Y-147540048D02*
X126232000Y-147540048D01*
X121002000Y-159370048D02*
X118462000Y-159370048D01*
%TO.C,S14*%
X126232000Y-142040000D02*
X126232000Y-128540000D01*
X113232000Y-128540000D02*
X113232000Y-142040000D01*
X113232000Y-142040000D02*
X126232000Y-142040000D01*
X113232000Y-128540000D02*
X126232000Y-128540000D01*
X121002000Y-140370000D02*
X118462000Y-140370000D01*
%TO.C,S13*%
X107232000Y-142040000D02*
X107232000Y-128540000D01*
X94232000Y-128540000D02*
X94232000Y-142040000D01*
X94232000Y-142040000D02*
X107232000Y-142040000D01*
X94232000Y-128540000D02*
X107232000Y-128540000D01*
X102002000Y-140370000D02*
X99462000Y-140370000D01*
%TO.C,S12*%
X88231976Y-142040036D02*
X88231976Y-128540036D01*
X75231976Y-128540036D02*
X75231976Y-142040036D01*
X75231976Y-142040036D02*
X88231976Y-142040036D01*
X75231976Y-128540036D02*
X88231976Y-128540036D01*
X83001976Y-140370036D02*
X80461976Y-140370036D01*
%TO.C,S11*%
X126232000Y-123040000D02*
X126232000Y-109540000D01*
X113232000Y-109540000D02*
X113232000Y-123040000D01*
X113232000Y-123040000D02*
X126232000Y-123040000D01*
X113232000Y-109540000D02*
X126232000Y-109540000D01*
X121002000Y-121370000D02*
X118462000Y-121370000D01*
%TO.C,S10*%
X107232000Y-123040000D02*
X107232000Y-109540000D01*
X94232000Y-109540000D02*
X94232000Y-123040000D01*
X94232000Y-123040000D02*
X107232000Y-123040000D01*
X94232000Y-109540000D02*
X107232000Y-109540000D01*
X102002000Y-121370000D02*
X99462000Y-121370000D01*
%TO.C,S9*%
X88231976Y-123040024D02*
X88231976Y-109540024D01*
X75231976Y-109540024D02*
X75231976Y-123040024D01*
X75231976Y-123040024D02*
X88231976Y-123040024D01*
X75231976Y-109540024D02*
X88231976Y-109540024D01*
X83001976Y-121370024D02*
X80461976Y-121370024D01*
%TO.C,S7*%
X126232000Y-104040012D02*
X126232000Y-90540012D01*
X113232000Y-90540012D02*
X113232000Y-104040012D01*
X113232000Y-104040012D02*
X126232000Y-104040012D01*
X113232000Y-90540012D02*
X126232000Y-90540012D01*
X121002000Y-102370012D02*
X118462000Y-102370012D01*
%TO.C,S6*%
X107232000Y-104040000D02*
X107232000Y-90540000D01*
X94232000Y-90540000D02*
X94232000Y-104040000D01*
X94232000Y-104040000D02*
X107232000Y-104040000D01*
X94232000Y-90540000D02*
X107232000Y-90540000D01*
X102002000Y-102370000D02*
X99462000Y-102370000D01*
%TO.C,S5*%
X88231976Y-104040012D02*
X88231976Y-90540012D01*
X75231976Y-90540012D02*
X75231976Y-104040012D01*
X75231976Y-104040012D02*
X88231976Y-104040012D01*
X75231976Y-90540012D02*
X88231976Y-90540012D01*
X83001976Y-102370012D02*
X80461976Y-102370012D01*
%TO.C,S4*%
X145232000Y-85040000D02*
X145232000Y-71540000D01*
X132232000Y-71540000D02*
X132232000Y-85040000D01*
X132232000Y-85040000D02*
X145232000Y-85040000D01*
X132232000Y-71540000D02*
X145232000Y-71540000D01*
X140002000Y-83370000D02*
X137462000Y-83370000D01*
%TO.C,S3*%
X126232000Y-85040000D02*
X126232000Y-71540000D01*
X113232000Y-71540000D02*
X113232000Y-85040000D01*
X113232000Y-85040000D02*
X126232000Y-85040000D01*
X113232000Y-71540000D02*
X126232000Y-71540000D01*
X121002000Y-83370000D02*
X118462000Y-83370000D01*
%TO.C,S2*%
X107232000Y-85040000D02*
X107232000Y-71540000D01*
X94232000Y-71540000D02*
X94232000Y-85040000D01*
X94232000Y-85040000D02*
X107232000Y-85040000D01*
X94232000Y-71540000D02*
X107232000Y-71540000D01*
X102002000Y-83370000D02*
X99462000Y-83370000D01*
%TO.C,S1*%
X88231976Y-85040000D02*
X88231976Y-71540000D01*
X75231976Y-71540000D02*
X75231976Y-85040000D01*
X75231976Y-85040000D02*
X88231976Y-85040000D01*
X75231976Y-71540000D02*
X88231976Y-71540000D01*
X83001976Y-83370000D02*
X80461976Y-83370000D01*
%TO.C,SW2*%
X138732036Y-58789988D02*
X138732036Y-59789988D01*
X139232036Y-59289988D02*
X138232036Y-59289988D01*
X135032036Y-65989988D02*
X132432036Y-65989988D01*
X140032036Y-65989988D02*
X137432036Y-65989988D01*
X145032036Y-65989988D02*
X142432036Y-65989988D01*
X142832036Y-52089988D02*
X142532036Y-51789988D01*
X142832036Y-51489988D02*
X142832036Y-52089988D01*
X142532036Y-51789988D02*
X142832036Y-51489988D01*
X145032036Y-52589988D02*
X142532036Y-52589988D01*
X145032036Y-57389988D02*
X145032036Y-52589988D01*
X132432036Y-52589988D02*
X135232036Y-52589988D01*
X132432036Y-57489988D02*
X132432036Y-52589988D01*
X132432036Y-65989988D02*
X132432036Y-61089988D01*
X145032036Y-61089988D02*
X145032036Y-65989988D01*
X141732036Y-59289988D02*
G75*
G03*
X141732036Y-59289988I-3000000J0D01*
G01*
%TO.C,SW1*%
X81732000Y-58789988D02*
X81732000Y-59789988D01*
X82232000Y-59289988D02*
X81232000Y-59289988D01*
X78032000Y-65989988D02*
X75432000Y-65989988D01*
X83032000Y-65989988D02*
X80432000Y-65989988D01*
X88032000Y-65989988D02*
X85432000Y-65989988D01*
X85832000Y-52089988D02*
X85532000Y-51789988D01*
X85832000Y-51489988D02*
X85832000Y-52089988D01*
X85532000Y-51789988D02*
X85832000Y-51489988D01*
X88032000Y-52589988D02*
X85532000Y-52589988D01*
X88032000Y-57389988D02*
X88032000Y-52589988D01*
X75432000Y-52589988D02*
X78232000Y-52589988D01*
X75432000Y-57489988D02*
X75432000Y-52589988D01*
X75432000Y-65989988D02*
X75432000Y-61089988D01*
X88032000Y-61089988D02*
X88032000Y-65989988D01*
X84732000Y-59289988D02*
G75*
G03*
X84732000Y-59289988I-3000000J0D01*
G01*
%TO.C,J1*%
X129076976Y-50285988D02*
X129076976Y-49385988D01*
X119886976Y-50285988D02*
X119886976Y-49385988D01*
X129076976Y-46685988D02*
X129076976Y-43955988D01*
X119886976Y-46685988D02*
X119886976Y-43955988D01*
X128956976Y-53365988D02*
X120006976Y-53365988D01*
X129076976Y-43955988D02*
X119886976Y-43955988D01*
%TO.C,S16*%
D11*
X85548886Y-147074809D02*
X85691743Y-147122428D01*
X85929839Y-147122428D01*
X86025077Y-147074809D01*
X86072696Y-147027190D01*
X86120315Y-146931952D01*
X86120315Y-146836714D01*
X86072696Y-146741476D01*
X86025077Y-146693857D01*
X85929839Y-146646238D01*
X85739362Y-146598619D01*
X85644124Y-146551000D01*
X85596505Y-146503381D01*
X85548886Y-146408143D01*
X85548886Y-146312905D01*
X85596505Y-146217667D01*
X85644124Y-146170048D01*
X85739362Y-146122428D01*
X85977458Y-146122428D01*
X86120315Y-146170048D01*
X87072696Y-147122428D02*
X86501267Y-147122428D01*
X86786982Y-147122428D02*
X86786982Y-146122428D01*
X86691743Y-146265286D01*
X86596505Y-146360524D01*
X86501267Y-146408143D01*
X87929839Y-146122428D02*
X87739362Y-146122428D01*
X87644124Y-146170048D01*
X87596505Y-146217667D01*
X87501267Y-146360524D01*
X87453648Y-146551000D01*
X87453648Y-146931952D01*
X87501267Y-147027190D01*
X87548886Y-147074809D01*
X87644124Y-147122428D01*
X87834601Y-147122428D01*
X87929839Y-147074809D01*
X87977458Y-147027190D01*
X88025077Y-146931952D01*
X88025077Y-146693857D01*
X87977458Y-146598619D01*
X87929839Y-146551000D01*
X87834601Y-146503381D01*
X87644124Y-146503381D01*
X87548886Y-146551000D01*
X87501267Y-146598619D01*
X87453648Y-146693857D01*
%TO.C,S15*%
X132393916Y-136244779D02*
X132536773Y-136292398D01*
X132774869Y-136292398D01*
X132870107Y-136244779D01*
X132917726Y-136197160D01*
X132965345Y-136101922D01*
X132965345Y-136006684D01*
X132917726Y-135911446D01*
X132870107Y-135863827D01*
X132774869Y-135816208D01*
X132584392Y-135768589D01*
X132489154Y-135720970D01*
X132441535Y-135673351D01*
X132393916Y-135578113D01*
X132393916Y-135482875D01*
X132441535Y-135387637D01*
X132489154Y-135340018D01*
X132584392Y-135292398D01*
X132822488Y-135292398D01*
X132965345Y-135340018D01*
X133917726Y-136292398D02*
X133346297Y-136292398D01*
X133632012Y-136292398D02*
X133632012Y-135292398D01*
X133536773Y-135435256D01*
X133441535Y-135530494D01*
X133346297Y-135578113D01*
X134822488Y-135292398D02*
X134346297Y-135292398D01*
X134298678Y-135768589D01*
X134346297Y-135720970D01*
X134441535Y-135673351D01*
X134679631Y-135673351D01*
X134774869Y-135720970D01*
X134822488Y-135768589D01*
X134870107Y-135863827D01*
X134870107Y-136101922D01*
X134822488Y-136197160D01*
X134774869Y-136244779D01*
X134679631Y-136292398D01*
X134441535Y-136292398D01*
X134346297Y-136244779D01*
X134298678Y-136197160D01*
%TO.C,S8*%
X131516773Y-111996922D02*
X131564392Y-111854065D01*
X131564392Y-111615970D01*
X131516773Y-111520732D01*
X131469154Y-111473113D01*
X131373916Y-111425494D01*
X131278678Y-111425494D01*
X131183440Y-111473113D01*
X131135821Y-111520732D01*
X131088202Y-111615970D01*
X131040583Y-111806446D01*
X130992964Y-111901684D01*
X130945345Y-111949303D01*
X130850107Y-111996922D01*
X130754869Y-111996922D01*
X130659631Y-111949303D01*
X130612012Y-111901684D01*
X130564392Y-111806446D01*
X130564392Y-111568351D01*
X130612012Y-111425494D01*
X130992964Y-110854065D02*
X130945345Y-110949303D01*
X130897726Y-110996922D01*
X130802488Y-111044541D01*
X130754869Y-111044541D01*
X130659631Y-110996922D01*
X130612012Y-110949303D01*
X130564392Y-110854065D01*
X130564392Y-110663589D01*
X130612012Y-110568351D01*
X130659631Y-110520732D01*
X130754869Y-110473113D01*
X130802488Y-110473113D01*
X130897726Y-110520732D01*
X130945345Y-110568351D01*
X130992964Y-110663589D01*
X130992964Y-110854065D01*
X131040583Y-110949303D01*
X131088202Y-110996922D01*
X131183440Y-111044541D01*
X131373916Y-111044541D01*
X131469154Y-110996922D01*
X131516773Y-110949303D01*
X131564392Y-110854065D01*
X131564392Y-110663589D01*
X131516773Y-110568351D01*
X131469154Y-110520732D01*
X131373916Y-110473113D01*
X131183440Y-110473113D01*
X131088202Y-110520732D01*
X131040583Y-110568351D01*
X130992964Y-110663589D01*
%TO.C,H9*%
X109470113Y-159031368D02*
X109470113Y-158031368D01*
X109470113Y-158507559D02*
X110041541Y-158507559D01*
X110041541Y-159031368D02*
X110041541Y-158031368D01*
X110565351Y-159031368D02*
X110755827Y-159031368D01*
X110851065Y-158983749D01*
X110898684Y-158936130D01*
X110993922Y-158793273D01*
X111041541Y-158602797D01*
X111041541Y-158221845D01*
X110993922Y-158126607D01*
X110946303Y-158078988D01*
X110851065Y-158031368D01*
X110660589Y-158031368D01*
X110565351Y-158078988D01*
X110517732Y-158126607D01*
X110470113Y-158221845D01*
X110470113Y-158459940D01*
X110517732Y-158555178D01*
X110565351Y-158602797D01*
X110660589Y-158650416D01*
X110851065Y-158650416D01*
X110946303Y-158602797D01*
X110993922Y-158555178D01*
X111041541Y-158459940D01*
%TO.C,SW3*%
X117836779Y-55923321D02*
X117884398Y-55780464D01*
X117884398Y-55542368D01*
X117836779Y-55447130D01*
X117789160Y-55399511D01*
X117693922Y-55351892D01*
X117598684Y-55351892D01*
X117503446Y-55399511D01*
X117455827Y-55447130D01*
X117408208Y-55542368D01*
X117360589Y-55732845D01*
X117312970Y-55828083D01*
X117265351Y-55875702D01*
X117170113Y-55923321D01*
X117074875Y-55923321D01*
X116979637Y-55875702D01*
X116932018Y-55828083D01*
X116884398Y-55732845D01*
X116884398Y-55494749D01*
X116932018Y-55351892D01*
X116884398Y-55018559D02*
X117884398Y-54780464D01*
X117170113Y-54589988D01*
X117884398Y-54399511D01*
X116884398Y-54161416D01*
X116884398Y-53875702D02*
X116884398Y-53256654D01*
X117265351Y-53589988D01*
X117265351Y-53447130D01*
X117312970Y-53351892D01*
X117360589Y-53304273D01*
X117455827Y-53256654D01*
X117693922Y-53256654D01*
X117789160Y-53304273D01*
X117836779Y-53351892D01*
X117884398Y-53447130D01*
X117884398Y-53732845D01*
X117836779Y-53828083D01*
X117789160Y-53875702D01*
%TO.C,S17*%
X113413904Y-145804809D02*
X113556761Y-145852428D01*
X113794857Y-145852428D01*
X113890095Y-145804809D01*
X113937714Y-145757190D01*
X113985333Y-145661952D01*
X113985333Y-145566714D01*
X113937714Y-145471476D01*
X113890095Y-145423857D01*
X113794857Y-145376238D01*
X113604380Y-145328619D01*
X113509142Y-145281000D01*
X113461523Y-145233381D01*
X113413904Y-145138143D01*
X113413904Y-145042905D01*
X113461523Y-144947667D01*
X113509142Y-144900048D01*
X113604380Y-144852428D01*
X113842476Y-144852428D01*
X113985333Y-144900048D01*
X114937714Y-145852428D02*
X114366285Y-145852428D01*
X114652000Y-145852428D02*
X114652000Y-144852428D01*
X114556761Y-144995286D01*
X114461523Y-145090524D01*
X114366285Y-145138143D01*
X115271047Y-144852428D02*
X115937714Y-144852428D01*
X115509142Y-145852428D01*
%TO.C,S14*%
X113413904Y-126804761D02*
X113556761Y-126852380D01*
X113794857Y-126852380D01*
X113890095Y-126804761D01*
X113937714Y-126757142D01*
X113985333Y-126661904D01*
X113985333Y-126566666D01*
X113937714Y-126471428D01*
X113890095Y-126423809D01*
X113794857Y-126376190D01*
X113604380Y-126328571D01*
X113509142Y-126280952D01*
X113461523Y-126233333D01*
X113413904Y-126138095D01*
X113413904Y-126042857D01*
X113461523Y-125947619D01*
X113509142Y-125900000D01*
X113604380Y-125852380D01*
X113842476Y-125852380D01*
X113985333Y-125900000D01*
X114937714Y-126852380D02*
X114366285Y-126852380D01*
X114652000Y-126852380D02*
X114652000Y-125852380D01*
X114556761Y-125995238D01*
X114461523Y-126090476D01*
X114366285Y-126138095D01*
X115794857Y-126185714D02*
X115794857Y-126852380D01*
X115556761Y-125804761D02*
X115318666Y-126519047D01*
X115937714Y-126519047D01*
%TO.C,S13*%
X94413904Y-126804761D02*
X94556761Y-126852380D01*
X94794857Y-126852380D01*
X94890095Y-126804761D01*
X94937714Y-126757142D01*
X94985333Y-126661904D01*
X94985333Y-126566666D01*
X94937714Y-126471428D01*
X94890095Y-126423809D01*
X94794857Y-126376190D01*
X94604380Y-126328571D01*
X94509142Y-126280952D01*
X94461523Y-126233333D01*
X94413904Y-126138095D01*
X94413904Y-126042857D01*
X94461523Y-125947619D01*
X94509142Y-125900000D01*
X94604380Y-125852380D01*
X94842476Y-125852380D01*
X94985333Y-125900000D01*
X95937714Y-126852380D02*
X95366285Y-126852380D01*
X95652000Y-126852380D02*
X95652000Y-125852380D01*
X95556761Y-125995238D01*
X95461523Y-126090476D01*
X95366285Y-126138095D01*
X96271047Y-125852380D02*
X96890095Y-125852380D01*
X96556761Y-126233333D01*
X96699619Y-126233333D01*
X96794857Y-126280952D01*
X96842476Y-126328571D01*
X96890095Y-126423809D01*
X96890095Y-126661904D01*
X96842476Y-126757142D01*
X96794857Y-126804761D01*
X96699619Y-126852380D01*
X96413904Y-126852380D01*
X96318666Y-126804761D01*
X96271047Y-126757142D01*
%TO.C,S12*%
X75361838Y-126804797D02*
X75504695Y-126852416D01*
X75742791Y-126852416D01*
X75838029Y-126804797D01*
X75885648Y-126757178D01*
X75933267Y-126661940D01*
X75933267Y-126566702D01*
X75885648Y-126471464D01*
X75838029Y-126423845D01*
X75742791Y-126376226D01*
X75552314Y-126328607D01*
X75457076Y-126280988D01*
X75409457Y-126233369D01*
X75361838Y-126138131D01*
X75361838Y-126042893D01*
X75409457Y-125947655D01*
X75457076Y-125900036D01*
X75552314Y-125852416D01*
X75790410Y-125852416D01*
X75933267Y-125900036D01*
X76885648Y-126852416D02*
X76314219Y-126852416D01*
X76599934Y-126852416D02*
X76599934Y-125852416D01*
X76504695Y-125995274D01*
X76409457Y-126090512D01*
X76314219Y-126138131D01*
X77266600Y-125947655D02*
X77314219Y-125900036D01*
X77409457Y-125852416D01*
X77647553Y-125852416D01*
X77742791Y-125900036D01*
X77790410Y-125947655D01*
X77838029Y-126042893D01*
X77838029Y-126138131D01*
X77790410Y-126280988D01*
X77218981Y-126852416D01*
X77838029Y-126852416D01*
%TO.C,S11*%
X113413904Y-107804761D02*
X113556761Y-107852380D01*
X113794857Y-107852380D01*
X113890095Y-107804761D01*
X113937714Y-107757142D01*
X113985333Y-107661904D01*
X113985333Y-107566666D01*
X113937714Y-107471428D01*
X113890095Y-107423809D01*
X113794857Y-107376190D01*
X113604380Y-107328571D01*
X113509142Y-107280952D01*
X113461523Y-107233333D01*
X113413904Y-107138095D01*
X113413904Y-107042857D01*
X113461523Y-106947619D01*
X113509142Y-106900000D01*
X113604380Y-106852380D01*
X113842476Y-106852380D01*
X113985333Y-106900000D01*
X114937714Y-107852380D02*
X114366285Y-107852380D01*
X114652000Y-107852380D02*
X114652000Y-106852380D01*
X114556761Y-106995238D01*
X114461523Y-107090476D01*
X114366285Y-107138095D01*
X115890095Y-107852380D02*
X115318666Y-107852380D01*
X115604380Y-107852380D02*
X115604380Y-106852380D01*
X115509142Y-106995238D01*
X115413904Y-107090476D01*
X115318666Y-107138095D01*
%TO.C,S10*%
X94413904Y-107804761D02*
X94556761Y-107852380D01*
X94794857Y-107852380D01*
X94890095Y-107804761D01*
X94937714Y-107757142D01*
X94985333Y-107661904D01*
X94985333Y-107566666D01*
X94937714Y-107471428D01*
X94890095Y-107423809D01*
X94794857Y-107376190D01*
X94604380Y-107328571D01*
X94509142Y-107280952D01*
X94461523Y-107233333D01*
X94413904Y-107138095D01*
X94413904Y-107042857D01*
X94461523Y-106947619D01*
X94509142Y-106900000D01*
X94604380Y-106852380D01*
X94842476Y-106852380D01*
X94985333Y-106900000D01*
X95937714Y-107852380D02*
X95366285Y-107852380D01*
X95652000Y-107852380D02*
X95652000Y-106852380D01*
X95556761Y-106995238D01*
X95461523Y-107090476D01*
X95366285Y-107138095D01*
X96556761Y-106852380D02*
X96652000Y-106852380D01*
X96747238Y-106900000D01*
X96794857Y-106947619D01*
X96842476Y-107042857D01*
X96890095Y-107233333D01*
X96890095Y-107471428D01*
X96842476Y-107661904D01*
X96794857Y-107757142D01*
X96747238Y-107804761D01*
X96652000Y-107852380D01*
X96556761Y-107852380D01*
X96461523Y-107804761D01*
X96413904Y-107757142D01*
X96366285Y-107661904D01*
X96318666Y-107471428D01*
X96318666Y-107233333D01*
X96366285Y-107042857D01*
X96413904Y-106947619D01*
X96461523Y-106900000D01*
X96556761Y-106852380D01*
%TO.C,S9*%
X75890071Y-107804785D02*
X76032928Y-107852404D01*
X76271023Y-107852404D01*
X76366261Y-107804785D01*
X76413880Y-107757166D01*
X76461499Y-107661928D01*
X76461499Y-107566690D01*
X76413880Y-107471452D01*
X76366261Y-107423833D01*
X76271023Y-107376214D01*
X76080547Y-107328595D01*
X75985309Y-107280976D01*
X75937690Y-107233357D01*
X75890071Y-107138119D01*
X75890071Y-107042881D01*
X75937690Y-106947643D01*
X75985309Y-106900024D01*
X76080547Y-106852404D01*
X76318642Y-106852404D01*
X76461499Y-106900024D01*
X76937690Y-107852404D02*
X77128166Y-107852404D01*
X77223404Y-107804785D01*
X77271023Y-107757166D01*
X77366261Y-107614309D01*
X77413880Y-107423833D01*
X77413880Y-107042881D01*
X77366261Y-106947643D01*
X77318642Y-106900024D01*
X77223404Y-106852404D01*
X77032928Y-106852404D01*
X76937690Y-106900024D01*
X76890071Y-106947643D01*
X76842452Y-107042881D01*
X76842452Y-107280976D01*
X76890071Y-107376214D01*
X76937690Y-107423833D01*
X77032928Y-107471452D01*
X77223404Y-107471452D01*
X77318642Y-107423833D01*
X77366261Y-107376214D01*
X77413880Y-107280976D01*
%TO.C,S7*%
X113890095Y-88804773D02*
X114032952Y-88852392D01*
X114271047Y-88852392D01*
X114366285Y-88804773D01*
X114413904Y-88757154D01*
X114461523Y-88661916D01*
X114461523Y-88566678D01*
X114413904Y-88471440D01*
X114366285Y-88423821D01*
X114271047Y-88376202D01*
X114080571Y-88328583D01*
X113985333Y-88280964D01*
X113937714Y-88233345D01*
X113890095Y-88138107D01*
X113890095Y-88042869D01*
X113937714Y-87947631D01*
X113985333Y-87900012D01*
X114080571Y-87852392D01*
X114318666Y-87852392D01*
X114461523Y-87900012D01*
X114794857Y-87852392D02*
X115461523Y-87852392D01*
X115032952Y-88852392D01*
%TO.C,S6*%
X94890095Y-88804761D02*
X95032952Y-88852380D01*
X95271047Y-88852380D01*
X95366285Y-88804761D01*
X95413904Y-88757142D01*
X95461523Y-88661904D01*
X95461523Y-88566666D01*
X95413904Y-88471428D01*
X95366285Y-88423809D01*
X95271047Y-88376190D01*
X95080571Y-88328571D01*
X94985333Y-88280952D01*
X94937714Y-88233333D01*
X94890095Y-88138095D01*
X94890095Y-88042857D01*
X94937714Y-87947619D01*
X94985333Y-87900000D01*
X95080571Y-87852380D01*
X95318666Y-87852380D01*
X95461523Y-87900000D01*
X96318666Y-87852380D02*
X96128190Y-87852380D01*
X96032952Y-87900000D01*
X95985333Y-87947619D01*
X95890095Y-88090476D01*
X95842476Y-88280952D01*
X95842476Y-88661904D01*
X95890095Y-88757142D01*
X95937714Y-88804761D01*
X96032952Y-88852380D01*
X96223428Y-88852380D01*
X96318666Y-88804761D01*
X96366285Y-88757142D01*
X96413904Y-88661904D01*
X96413904Y-88423809D01*
X96366285Y-88328571D01*
X96318666Y-88280952D01*
X96223428Y-88233333D01*
X96032952Y-88233333D01*
X95937714Y-88280952D01*
X95890095Y-88328571D01*
X95842476Y-88423809D01*
%TO.C,S5*%
X75890071Y-88804773D02*
X76032928Y-88852392D01*
X76271023Y-88852392D01*
X76366261Y-88804773D01*
X76413880Y-88757154D01*
X76461499Y-88661916D01*
X76461499Y-88566678D01*
X76413880Y-88471440D01*
X76366261Y-88423821D01*
X76271023Y-88376202D01*
X76080547Y-88328583D01*
X75985309Y-88280964D01*
X75937690Y-88233345D01*
X75890071Y-88138107D01*
X75890071Y-88042869D01*
X75937690Y-87947631D01*
X75985309Y-87900012D01*
X76080547Y-87852392D01*
X76318642Y-87852392D01*
X76461499Y-87900012D01*
X77366261Y-87852392D02*
X76890071Y-87852392D01*
X76842452Y-88328583D01*
X76890071Y-88280964D01*
X76985309Y-88233345D01*
X77223404Y-88233345D01*
X77318642Y-88280964D01*
X77366261Y-88328583D01*
X77413880Y-88423821D01*
X77413880Y-88661916D01*
X77366261Y-88757154D01*
X77318642Y-88804773D01*
X77223404Y-88852392D01*
X76985309Y-88852392D01*
X76890071Y-88804773D01*
X76842452Y-88757154D01*
%TO.C,S4*%
X132890095Y-69804761D02*
X133032952Y-69852380D01*
X133271047Y-69852380D01*
X133366285Y-69804761D01*
X133413904Y-69757142D01*
X133461523Y-69661904D01*
X133461523Y-69566666D01*
X133413904Y-69471428D01*
X133366285Y-69423809D01*
X133271047Y-69376190D01*
X133080571Y-69328571D01*
X132985333Y-69280952D01*
X132937714Y-69233333D01*
X132890095Y-69138095D01*
X132890095Y-69042857D01*
X132937714Y-68947619D01*
X132985333Y-68900000D01*
X133080571Y-68852380D01*
X133318666Y-68852380D01*
X133461523Y-68900000D01*
X134318666Y-69185714D02*
X134318666Y-69852380D01*
X134080571Y-68804761D02*
X133842476Y-69519047D01*
X134461523Y-69519047D01*
%TO.C,S3*%
X113890095Y-69804761D02*
X114032952Y-69852380D01*
X114271047Y-69852380D01*
X114366285Y-69804761D01*
X114413904Y-69757142D01*
X114461523Y-69661904D01*
X114461523Y-69566666D01*
X114413904Y-69471428D01*
X114366285Y-69423809D01*
X114271047Y-69376190D01*
X114080571Y-69328571D01*
X113985333Y-69280952D01*
X113937714Y-69233333D01*
X113890095Y-69138095D01*
X113890095Y-69042857D01*
X113937714Y-68947619D01*
X113985333Y-68900000D01*
X114080571Y-68852380D01*
X114318666Y-68852380D01*
X114461523Y-68900000D01*
X114794857Y-68852380D02*
X115413904Y-68852380D01*
X115080571Y-69233333D01*
X115223428Y-69233333D01*
X115318666Y-69280952D01*
X115366285Y-69328571D01*
X115413904Y-69423809D01*
X115413904Y-69661904D01*
X115366285Y-69757142D01*
X115318666Y-69804761D01*
X115223428Y-69852380D01*
X114937714Y-69852380D01*
X114842476Y-69804761D01*
X114794857Y-69757142D01*
%TO.C,S2*%
X94890095Y-69804761D02*
X95032952Y-69852380D01*
X95271047Y-69852380D01*
X95366285Y-69804761D01*
X95413904Y-69757142D01*
X95461523Y-69661904D01*
X95461523Y-69566666D01*
X95413904Y-69471428D01*
X95366285Y-69423809D01*
X95271047Y-69376190D01*
X95080571Y-69328571D01*
X94985333Y-69280952D01*
X94937714Y-69233333D01*
X94890095Y-69138095D01*
X94890095Y-69042857D01*
X94937714Y-68947619D01*
X94985333Y-68900000D01*
X95080571Y-68852380D01*
X95318666Y-68852380D01*
X95461523Y-68900000D01*
X95842476Y-68947619D02*
X95890095Y-68900000D01*
X95985333Y-68852380D01*
X96223428Y-68852380D01*
X96318666Y-68900000D01*
X96366285Y-68947619D01*
X96413904Y-69042857D01*
X96413904Y-69138095D01*
X96366285Y-69280952D01*
X95794857Y-69852380D01*
X96413904Y-69852380D01*
%TO.C,S1*%
X75890071Y-69804761D02*
X76032928Y-69852380D01*
X76271023Y-69852380D01*
X76366261Y-69804761D01*
X76413880Y-69757142D01*
X76461499Y-69661904D01*
X76461499Y-69566666D01*
X76413880Y-69471428D01*
X76366261Y-69423809D01*
X76271023Y-69376190D01*
X76080547Y-69328571D01*
X75985309Y-69280952D01*
X75937690Y-69233333D01*
X75890071Y-69138095D01*
X75890071Y-69042857D01*
X75937690Y-68947619D01*
X75985309Y-68900000D01*
X76080547Y-68852380D01*
X76318642Y-68852380D01*
X76461499Y-68900000D01*
X77413880Y-69852380D02*
X76842452Y-69852380D01*
X77128166Y-69852380D02*
X77128166Y-68852380D01*
X77032928Y-68995238D01*
X76937690Y-69090476D01*
X76842452Y-69138095D01*
%TO.C,SW2*%
X146336797Y-55923321D02*
X146384416Y-55780464D01*
X146384416Y-55542368D01*
X146336797Y-55447130D01*
X146289178Y-55399511D01*
X146193940Y-55351892D01*
X146098702Y-55351892D01*
X146003464Y-55399511D01*
X145955845Y-55447130D01*
X145908226Y-55542368D01*
X145860607Y-55732845D01*
X145812988Y-55828083D01*
X145765369Y-55875702D01*
X145670131Y-55923321D01*
X145574893Y-55923321D01*
X145479655Y-55875702D01*
X145432036Y-55828083D01*
X145384416Y-55732845D01*
X145384416Y-55494749D01*
X145432036Y-55351892D01*
X145384416Y-55018559D02*
X146384416Y-54780464D01*
X145670131Y-54589988D01*
X146384416Y-54399511D01*
X145384416Y-54161416D01*
X145479655Y-53828083D02*
X145432036Y-53780464D01*
X145384416Y-53685226D01*
X145384416Y-53447130D01*
X145432036Y-53351892D01*
X145479655Y-53304273D01*
X145574893Y-53256654D01*
X145670131Y-53256654D01*
X145812988Y-53304273D01*
X146384416Y-53875702D01*
X146384416Y-53256654D01*
%TO.C,SW1*%
X89336761Y-55923321D02*
X89384380Y-55780464D01*
X89384380Y-55542368D01*
X89336761Y-55447130D01*
X89289142Y-55399511D01*
X89193904Y-55351892D01*
X89098666Y-55351892D01*
X89003428Y-55399511D01*
X88955809Y-55447130D01*
X88908190Y-55542368D01*
X88860571Y-55732845D01*
X88812952Y-55828083D01*
X88765333Y-55875702D01*
X88670095Y-55923321D01*
X88574857Y-55923321D01*
X88479619Y-55875702D01*
X88432000Y-55828083D01*
X88384380Y-55732845D01*
X88384380Y-55494749D01*
X88432000Y-55351892D01*
X88384380Y-55018559D02*
X89384380Y-54780464D01*
X88670095Y-54589988D01*
X89384380Y-54399511D01*
X88384380Y-54161416D01*
X89384380Y-53256654D02*
X89384380Y-53828083D01*
X89384380Y-53542368D02*
X88384380Y-53542368D01*
X88527238Y-53637607D01*
X88622476Y-53732845D01*
X88670095Y-53828083D01*
%TO.C,J1*%
X124148642Y-53938368D02*
X124148642Y-54652654D01*
X124101023Y-54795511D01*
X124005785Y-54890749D01*
X123862928Y-54938368D01*
X123767690Y-54938368D01*
X125148642Y-54938368D02*
X124577214Y-54938368D01*
X124862928Y-54938368D02*
X124862928Y-53938368D01*
X124767690Y-54081226D01*
X124672452Y-54176464D01*
X124577214Y-54224083D01*
%TD*%
M02*
