M48
; DRILL file {KiCad (5.1.6)-1} date 11/22/20 11:15:35
; FORMAT={-:-/ absolute / inch / decimal}
; #@! TF.CreationDate,2020-11-22T11:15:35-08:00
; #@! TF.GenerationSoftware,Kicad,Pcbnew,(5.1.6)-1
FMAT,2
INCH
T1C0.0157
T2C0.0157
T3C0.0236
T4C0.0250
T5C0.0394
T6C0.0787
T7C0.0866
T8C0.0669
T9C0.1181
T10C0.1201
T11C0.1571
T12C0.1575
%
G90
G05
T1
X3.8498Y-2.3593
T2
X3.0545Y-6.1208
X3.4778Y-2.0814
X3.4928Y-2.1214
X3.6128Y-2.2314
X3.6178Y-2.3714
X3.6213Y-2.7938
X3.6278Y-2.1364
X3.6298Y-2.0743
X3.6378Y-2.1814
X3.6528Y-2.3364
X3.6678Y-2.2664
X3.6878Y-2.3664
X3.7278Y-2.3364
X3.7578Y-2.0764
X3.8042Y-2.0767
X3.8378Y-2.0514
X3.8998Y-2.3543
X3.9198Y-2.2643
X3.9337Y-2.1082
X3.9353Y-1.9098
X4.3248Y-1.8743
X4.3498Y-1.9243
X4.3748Y-1.8743
X4.3748Y-1.9743
X4.3998Y-1.9243
X4.4248Y-1.8743
X4.4248Y-1.9743
X4.4498Y-1.9243
X4.4748Y-1.9743
X4.7213Y-2.7938
X5.0294Y-3.9727
X5.1919Y-2.2143
X5.1969Y-2.1343
X5.6673Y-2.5113
X4.7837Y-2.0211
X4.7837Y-2.0743
X4.8172Y-2.0211
X4.8172Y-2.0743
X4.8507Y-2.0211
X4.8507Y-2.0743
X4.8841Y-2.0211
X4.8841Y-2.0743
X4.9176Y-2.0211
X4.9176Y-2.0743
X4.9511Y-2.0211
X4.9511Y-2.0743
X4.9845Y-2.0211
X4.9845Y-2.0743
X5.018Y-2.0211
X5.018Y-2.0743
T4
X3.0078Y-3.2164
X3.0078Y-3.9664
X3.0078Y-4.7164
X3.0078Y-5.4664
X3.7578Y-3.2164
X3.7578Y-3.9664
X3.7578Y-4.7164
X3.7578Y-5.4664
X4.3136Y-2.1405
X4.5078Y-3.2164
X4.5078Y-3.9664
X4.5078Y-4.7164
X4.5078Y-5.4664
X4.7773Y-2.3893
X4.8148Y-1.9393
X4.8978Y-2.6064
X5.0898Y-2.2593
X5.1398Y-2.2593
X5.2578Y-3.2164
T5
X4.2414Y-2.039
X4.2414Y-2.6098
X4.3398Y-2.039
X4.4383Y-2.039
X4.4383Y-2.6098
X5.3635Y-2.039
X5.3635Y-2.6098
X5.4619Y-2.039
X5.5603Y-2.039
X5.5603Y-2.6098
X3.1194Y-2.039
X3.1194Y-2.6098
X3.2178Y-2.039
X3.3162Y-2.039
X3.3162Y-2.6098
T7
X3.5918Y-4.9524
X4.3398Y-6.3693
X5.0879Y-3.4563
X5.0879Y-4.9524
X5.7498Y-1.9493
X5.7498Y-6.3693
X2.9298Y-6.3693
X2.9298Y-1.9493
X3.5918Y-3.4563
T8
X3.0178Y-3.0823
X3.4178Y-3.0823
X4.5139Y-5.3264
X4.9139Y-5.3264
X5.2619Y-3.0823
X5.6619Y-3.0823
X3.7658Y-3.0823
X4.1658Y-3.0823
X3.7658Y-4.5783
X4.1658Y-4.5783
X3.0178Y-5.3264
X3.4178Y-5.3264
X4.5139Y-6.0744
X4.9139Y-6.0744
X3.0178Y-4.5783
X3.4178Y-4.5783
X4.5139Y-3.0823
X4.9139Y-3.0823
X5.4619Y-4.0043
X5.4619Y-4.4043
X4.5139Y-4.5783
X4.9139Y-4.5783
X3.0178Y-3.8303
X3.4178Y-3.8303
X3.7658Y-3.8303
X4.1658Y-3.8303
X3.3918Y-6.0744
X3.7918Y-6.0744
X3.7658Y-5.3264
X4.1658Y-5.3264
X4.5139Y-3.8303
X4.9139Y-3.8303
X5.4619Y-5.5004
X5.4619Y-5.9004
T9
X3.0678Y-2.9823
X3.3178Y-2.8823
X4.5639Y-5.2264
X4.8139Y-5.1264
X5.3119Y-2.9823
X5.5619Y-2.8823
X3.8158Y-2.9823
X4.0658Y-2.8823
X3.8158Y-4.4783
X4.0658Y-4.3783
X3.0678Y-5.2264
X3.3178Y-5.1264
X4.5639Y-5.9744
X4.8139Y-5.8744
X3.0678Y-4.4783
X3.3178Y-4.3783
X4.5639Y-2.9823
X4.8139Y-2.8823
X5.2619Y-4.1043
X5.3619Y-4.3543
X4.5639Y-4.4783
X4.8139Y-4.3783
X3.0678Y-3.7303
X3.3178Y-3.6303
X3.8158Y-3.7303
X4.0658Y-3.6303
X3.4418Y-5.9744
X3.6918Y-5.8744
X3.8158Y-5.2264
X4.0658Y-5.1264
X4.5639Y-3.7303
X4.8139Y-3.6303
X5.2619Y-5.6004
X5.3619Y-5.8504
T10
X5.7375Y-3.7358
X5.7375Y-4.6728
X5.7375Y-5.2319
X5.7375Y-6.1689
X3.1233Y-6.35
X4.0603Y-6.35
T11
X5.4619Y-3.0823
X3.9658Y-3.0823
X3.9658Y-4.5783
X3.2178Y-5.3264
X4.7139Y-6.0744
X3.2178Y-4.5783
X4.7139Y-3.0823
X5.4619Y-4.2043
X4.7139Y-4.5783
X3.2178Y-3.8303
X3.9658Y-3.8303
X3.5918Y-6.0744
X3.9658Y-5.3264
X4.7139Y-3.8303
X5.4619Y-5.7004
X3.2178Y-3.0823
X4.7139Y-5.3264
T12
X3.1233Y-5.75
X4.0603Y-5.75
X5.1375Y-3.7358
X5.1375Y-4.6728
X5.1375Y-5.2319
X5.1375Y-6.1689
T3
G00X4.7306Y-1.9183
M15
G01X4.7306Y-1.8868
M16
G05
G00X4.7306Y-2.0652
M15
G01X4.7306Y-2.0061
M16
G05
G00X5.0711Y-1.9183
M15
G01X5.0711Y-1.8868
M16
G05
G00X5.0711Y-2.0652
M15
G01X5.0711Y-2.0061
M16
G05
T6
G00X4.1194Y-2.3244
M15
G01X4.1194Y-2.3441
M16
G05
G00X4.5603Y-2.3244
M15
G01X4.5603Y-2.3441
M16
G05
G00X5.2414Y-2.3244
M15
G01X5.2414Y-2.3441
M16
G05
G00X5.6824Y-2.3244
M15
G01X5.6824Y-2.3441
M16
G05
G00X2.9973Y-2.3244
M15
G01X2.9973Y-2.3441
M16
G05
G00X3.4383Y-2.3244
M15
G01X3.4383Y-2.3441
M16
G05
T0
M30
